<?xml version="1.0" encoding="utf-8"?>
<!-- Generator: Adobe Illustrator 25.0.0, SVG Export Plug-In . SVG Version: 6.00 Build 0)  -->
<svg version="1.1" id="Layer_1" xmlns="http://www.w3.org/2000/svg" xmlns:xlink="http://www.w3.org/1999/xlink" x="0px" y="0px"
	 viewBox="0 0 139.9 37.1" style="enable-background:new 0 0 139.9 37.1;" xml:space="preserve">
<style type="text/css">
	.st0{fill:#15243D;}
	.st1{fill:#F6BE1C;}
	.st2{fill:#36C1F1;}
	.st3{fill:#EE2157;}
	.st4{fill:url(#SVGID_1_);}
	.st5{fill:url(#SVGID_2_);}
	.st6{fill:url(#SVGID_3_);}
	.st7{fill:url(#SVGID_4_);}
	.st8{fill:url(#SVGID_5_);}
</style>
<g>
	<g>
		<g>
			<g>
				<g>
					<g>
						<path class="st0" d="M59.4,11.6v1.9h-6.7v3.1h6v1.8h-6v3.1h6.9v1.9h-9V11.6H59.4z"/>
						<path class="st0" d="M71.6,11.6h2.1v11.7h-2.3l-7.1-8.5v8.5h-2.1V11.6h2.1l7.3,8.7V11.6z"/>
						<path class="st0" d="M87.5,21.7c-1.3,1.2-2.8,1.7-4.7,1.7c-1.9,0-3.4-0.6-4.7-1.7c-1.3-1.2-1.9-2.6-1.9-4.3
							c0-1.7,0.6-3.2,1.9-4.3c1.3-1.2,2.8-1.7,4.7-1.7c1.9,0,3.4,0.6,4.7,1.7c1.3,1.2,1.9,2.6,1.9,4.3
							C89.4,19.1,88.8,20.5,87.5,21.7z M85.9,14.4c-0.9-0.8-1.9-1.2-3.2-1.2c-1.2,0-2.3,0.4-3.2,1.2c-0.9,0.8-1.3,1.8-1.3,3
							c0,1.2,0.4,2.2,1.3,3c0.9,0.8,1.9,1.2,3.2,1.2c1.2,0,2.3-0.4,3.2-1.2c0.9-0.8,1.3-1.8,1.3-3C87.2,16.2,86.8,15.2,85.9,14.4z"
							/>
						<path class="st0" d="M97.4,23.3H95L90,11.6h2.4l3.9,8.7l3.9-8.7h2.4L97.4,23.3z"/>
						<path class="st0" d="M105.2,20.6l-1.3,2.7h-2.3l5.5-11.7h2.3l5.5,11.7h-2.3l-1.3-2.7H105.2z M110.6,18.8l-2.3-4.8l-2.3,4.8
							H110.6z"/>
						<path class="st0" d="M126,11.6h2.1v11.7h-2.3l-7.1-8.5v8.5h-2.1V11.6h2.1l7.3,8.7V11.6z"/>
						<path class="st0" d="M136.1,13.4v9.9H134v-9.9h-3.8v-1.8h9.7v1.8H136.1z"/>
					</g>
				</g>
				<g>
					<g>
						<path class="st0" d="M86,27v3h-0.6v-3h-1.2v-0.5h2.9V27H86z"/>
						<path class="st0" d="M91.3,26.5V27h-2V28h1.8v0.5h-1.8v0.9h2.1V30h-2.7v-3.5H91.3z"/>
						<path class="st0" d="M94.7,29.5c0.2,0,0.4,0,0.6-0.1c0.2-0.1,0.3-0.2,0.5-0.3l0.4,0.4c-0.4,0.4-0.9,0.6-1.5,0.6
							c-0.6,0-1-0.2-1.4-0.5c-0.4-0.3-0.6-0.8-0.6-1.3c0-0.5,0.2-1,0.6-1.3c0.4-0.3,0.9-0.5,1.5-0.5c0.6,0,1.1,0.2,1.5,0.6l-0.4,0.4
							c-0.2-0.2-0.4-0.3-0.5-0.3C95.1,27,94.9,27,94.7,27c-0.4,0-0.7,0.1-1,0.3c-0.3,0.2-0.4,0.5-0.4,0.9c0,0.4,0.1,0.7,0.4,0.9
							C94,29.3,94.3,29.5,94.7,29.5z"/>
						<path class="st0" d="M97.7,30v-3.5h0.6V28h1.9v-1.5h0.6V30h-0.6v-1.4h-1.9V30H97.7z"/>
						<path class="st0" d="M105.5,26.5h0.6V30h-0.7l-2.1-2.6V30h-0.6v-3.5h0.6l2.2,2.6V26.5z"/>
						<path class="st0" d="M111.1,29.5c-0.4,0.3-0.9,0.5-1.4,0.5c-0.6,0-1-0.2-1.4-0.5c-0.4-0.3-0.6-0.8-0.6-1.3
							c0-0.5,0.2-1,0.6-1.3c0.4-0.3,0.9-0.5,1.4-0.5c0.6,0,1,0.2,1.4,0.5c0.4,0.3,0.6,0.8,0.6,1.3C111.7,28.7,111.5,29.2,111.1,29.5
							z M110.7,27.3c-0.3-0.2-0.6-0.4-1-0.4c-0.4,0-0.7,0.1-1,0.4c-0.3,0.2-0.4,0.5-0.4,0.9c0,0.4,0.1,0.7,0.4,0.9
							c0.3,0.2,0.6,0.4,1,0.4c0.4,0,0.7-0.1,1-0.4c0.3-0.2,0.4-0.5,0.4-0.9C111.1,27.9,110.9,27.6,110.7,27.3z"/>
						<path class="st0" d="M113.3,30v-3.5h0.6v3h1.7V30H113.3z"/>
						<path class="st0" d="M120.2,29.5c-0.4,0.3-0.9,0.5-1.4,0.5c-0.6,0-1-0.2-1.4-0.5c-0.4-0.3-0.6-0.8-0.6-1.3
							c0-0.5,0.2-1,0.6-1.3c0.4-0.3,0.9-0.5,1.4-0.5c0.6,0,1,0.2,1.4,0.5c0.4,0.3,0.6,0.8,0.6,1.3C120.8,28.7,120.6,29.2,120.2,29.5
							z M119.7,27.3c-0.3-0.2-0.6-0.4-1-0.4c-0.4,0-0.7,0.1-1,0.4c-0.3,0.2-0.4,0.5-0.4,0.9c0,0.4,0.1,0.7,0.4,0.9
							c0.3,0.2,0.6,0.4,1,0.4c0.4,0,0.7-0.1,1-0.4c0.3-0.2,0.4-0.5,0.4-0.9C120.1,27.9,120,27.6,119.7,27.3z"/>
						<path class="st0" d="M125,28.3h0.6v1.2c-0.4,0.4-0.9,0.5-1.5,0.5c-0.6,0-1-0.2-1.4-0.5c-0.4-0.3-0.6-0.8-0.6-1.3
							c0-0.5,0.2-1,0.6-1.3c0.4-0.3,0.9-0.5,1.4-0.5c0.5,0,1,0.1,1.4,0.4l-0.3,0.5c-0.1-0.1-0.3-0.2-0.4-0.2c-0.2,0-0.3-0.1-0.5-0.1
							c-0.4,0-0.7,0.1-1,0.3c-0.3,0.2-0.4,0.5-0.4,0.9c0,0.4,0.1,0.7,0.4,0.9c0.3,0.2,0.6,0.3,0.9,0.3c0.4,0,0.7-0.1,0.9-0.2V28.3z"
							/>
						<path class="st0" d="M127.2,26.5h0.6V30h-0.6V26.5z"/>
						<path class="st0" d="M132.3,26.5V27h-2V28h1.8v0.5h-1.8v0.9h2.1V30h-2.7v-3.5H132.3z"/>
						<path class="st0" d="M135.1,26.9c-0.2,0-0.3,0-0.5,0.1c-0.1,0.1-0.2,0.2-0.2,0.3c0,0.1,0.1,0.3,0.2,0.3
							c0.1,0.1,0.4,0.2,0.8,0.2c0.4,0.1,0.7,0.2,0.9,0.4c0.2,0.2,0.3,0.4,0.3,0.7c0,0.3-0.1,0.6-0.4,0.7c-0.2,0.2-0.6,0.3-1,0.3
							c-0.6,0-1.1-0.2-1.6-0.6l0.4-0.4c0.4,0.3,0.8,0.5,1.2,0.5c0.2,0,0.4,0,0.5-0.1c0.1-0.1,0.2-0.2,0.2-0.3c0-0.1-0.1-0.2-0.2-0.3
							c-0.1-0.1-0.3-0.1-0.6-0.2c-0.3-0.1-0.5-0.1-0.6-0.2c-0.1-0.1-0.3-0.1-0.4-0.2c-0.2-0.2-0.3-0.4-0.3-0.7
							c0-0.3,0.1-0.6,0.4-0.8c0.3-0.2,0.6-0.3,0.9-0.3c0.2,0,0.5,0,0.7,0.1c0.2,0.1,0.4,0.2,0.6,0.3l-0.3,0.4
							c-0.1-0.1-0.3-0.2-0.5-0.2C135.5,27,135.3,26.9,135.1,26.9z"/>
					</g>
				</g>
			</g>
		</g>
		<g>
			<path class="st1" d="M4.4,24.8c0,0.6-0.6,1.1-1.2,1.1H1.2c-0.7,0-1.2-0.5-1.2-1.1v-1.8c0-0.6,0.6-1.1,1.2-1.1h1.9
				c0.7,0,1.2,0.5,1.2,1.1L4.4,24.8z"/>
			<path class="st2" d="M16.4,35c0,0.4-0.4,0.7-0.8,0.7h-1.2c-0.4,0-0.8-0.3-0.8-0.7v-1.1c0-0.4,0.4-0.7,0.8-0.7h1.2
				c0.4,0,0.8,0.3,0.8,0.7V35z"/>
			<path class="st3" d="M38.3,24.3c0,0.4-0.4,0.8-0.9,0.8h-1.3c-0.5,0-0.9-0.4-0.9-0.8v-1.2c0-0.4,0.4-0.8,0.9-0.8h1.3
				c0.5,0,0.9,0.4,0.9,0.8V24.3z"/>
			<path class="st1" d="M39.4,13.6c0,0.6-0.5,1.1-1.2,1.1h-1.8c-0.7,0-1.2-0.5-1.2-1.1v-1.7c0-0.6,0.5-1.1,1.2-1.1l1.8,0
				c0.7,0,1.2,0.5,1.2,1.1V13.6z"/>
			<path class="st1" d="M16.5,2.9c0,0.6-0.5,1.1-1.2,1.1h-1.9c-0.7,0-1.2-0.5-1.2-1.1V1.1c0-0.6,0.5-1.1,1.2-1.1h1.9
				c0.7,0,1.2,0.5,1.2,1.1V2.9z"/>
			<path class="st2" d="M26.4,3.2C26.4,3.6,26,4,25.6,4h-1.2c-0.4,0-0.8-0.3-0.8-0.7V2.1c0-0.4,0.4-0.7,0.8-0.7h1.2
				c0.4,0,0.8,0.3,0.8,0.7V3.2z"/>
			<g>
				<linearGradient id="SVGID_1_" gradientUnits="userSpaceOnUse" x1="-1.1134" y1="16.4299" x2="14.3886" y2="0.9279">
					<stop  offset="0" style="stop-color:#49C6EF"/>
					<stop  offset="1" style="stop-color:#AED24D"/>
				</linearGradient>
				<path class="st4" d="M6.7,9.9h2.4c0.8,0,1.5-0.6,1.5-1.4V6.3c0-0.8-0.7-1.4-1.5-1.4H6.7c-0.8,0-1.5,0.6-1.5,1.4v2.2
					C5.2,9.3,5.9,9.9,6.7,9.9z"/>
				<linearGradient id="SVGID_2_" gradientUnits="userSpaceOnUse" x1="22.934" y1="38.7521" x2="38.434" y2="23.252">
					<stop  offset="0" style="stop-color:#49C6EF"/>
					<stop  offset="1" style="stop-color:#AED24D"/>
				</linearGradient>
				<path class="st5" d="M33.2,27.2h-2.4c-0.9,0-1.6,0.7-1.6,1.5v2.2c0,0.8,0.7,1.5,1.6,1.5h2.4c0.9,0,1.6-0.7,1.6-1.5v-2.2
					C34.7,27.8,34,27.2,33.2,27.2z"/>
				<linearGradient id="SVGID_3_" gradientUnits="userSpaceOnUse" x1="22.4869" y1="38.3194" x2="37.9886" y2="22.8177">
					<stop  offset="0" style="stop-color:#49C6EF"/>
					<stop  offset="1" style="stop-color:#AED24D"/>
				</linearGradient>
				<path class="st6" d="M26.7,33.1h-1.9c-0.7,0-1.2,0.5-1.2,1.1V36c0,0.6,0.6,1.1,1.2,1.1h1.9c0.7,0,1.2-0.5,1.2-1.1v-1.8
					C27.9,33.6,27.3,33.1,26.7,33.1z"/>
				<linearGradient id="SVGID_4_" gradientUnits="userSpaceOnUse" x1="10.5332" y1="27.2029" x2="26.0347" y2="11.7014">
					<stop  offset="0" style="stop-color:#49C6EF"/>
					<stop  offset="1" style="stop-color:#AED24D"/>
				</linearGradient>
				<path class="st7" d="M9.2,27.2H6.8c-0.9,0-1.6,0.6-1.6,1.4v2.2c0,0.8,0.7,1.4,1.6,1.4h2.4c0.9,0,1.6-0.6,1.6-1.4v-2.2
					C10.7,27.8,10,27.2,9.2,27.2z"/>
				<linearGradient id="SVGID_5_" gradientUnits="userSpaceOnUse" x1="10.654" y1="27.7845" x2="26.3044" y2="12.1341">
					<stop  offset="0" style="stop-color:#49C6EF"/>
					<stop  offset="1" style="stop-color:#AED24D"/>
				</linearGradient>
				<path class="st8" d="M30.7,9.9L30.7,9.9c0,0,2.5,0,2.5,0c0.9,0,1.6-0.6,1.6-1.4V6.2c0-0.8-0.7-1.4-1.6-1.4h-2.4
					c-0.9,0-1.6,0.6-1.6,1.4l0,2.2c0,0.5-0.2,1-0.6,1.4c-0.4,0.4-0.9,0.6-1.5,0.5l-2.4,0c-0.5,0-1.1-0.2-1.5-0.5
					c-0.4-0.4-0.6-0.9-0.6-1.4c0,0,0,0,0,0V6.2c0-0.8-0.7-1.4-1.6-1.4l-2.4,0c-0.9,0-1.6,0.6-1.6,1.4c0,0,0,2.2,0,2.2l0,0
					c0,0.5-0.2,1-0.6,1.4c-0.4,0.4-0.9,0.6-1.5,0.5v0c0,0-2.4,0-2.4,0c-0.9,0-1.6,0.6-1.6,1.4V14c0,0.5-0.2,1-0.6,1.4
					c-0.4,0.4-0.9,0.6-1.5,0.5H6.8c-0.9,0-1.6,0.6-1.6,1.4v2.2C5.3,20.3,6,21,6.8,21c0,0,2.4,0,2.5,0l0,0c0.5,0,1,0.2,1.4,0.5
					c0.4,0.4,0.6,0.8,0.6,1.3l0,2.3c0,0.8,0.7,1.4,1.6,1.4l2.5,0c0.5,0,1,0.2,1.4,0.5c0.4,0.4,0.6,0.8,0.6,1.3l0,2.3
					c0,0.8,0.7,1.4,1.6,1.4h2.4c0.9,0,1.6-0.6,1.6-1.4c0,0,0-2.3,0-2.3l0,0c0-0.5,0.2-0.9,0.6-1.3c0.4-0.4,0.9-0.5,1.4-0.5l0,0
					c0,0,2.5,0,2.5,0c0.9,0,1.6-0.6,1.6-1.4l0-2.3c0-0.5,0.2-0.9,0.6-1.3c0.4-0.4,0.9-0.5,1.4-0.5l0,0c0,0,2.5,0,2.5,0
					c0.9,0,1.6-0.6,1.6-1.4v-2.2c0-0.8-0.7-1.4-1.6-1.4h-2.4c-0.9,0-1.6,0.6-1.6,1.4v2.2c0,0.5-0.2,1-0.6,1.4
					c-0.4,0.4-0.9,0.6-1.5,0.5h0c0,0,0,0,0,0h-2.4c-0.9,0-1.6,0.6-1.6,1.4c0,0,0,2.2,0,2.2l0,0c0,0.5-0.2,1-0.6,1.4
					c-0.4,0.4-0.9,0.6-1.5,0.5l0,0c0,0-2.4,0-2.4,0c-0.5,0-1.1-0.2-1.5-0.5c-0.4-0.4-0.6-0.8-0.6-1.3c0,0,0-2.3,0-2.3
					c0-0.8-0.7-1.4-1.6-1.4l-2.4,0c-0.5,0-1.1-0.2-1.5-0.5c-0.4-0.4-0.6-0.9-0.6-1.4l0-2.3c0-0.5,0.2-0.9,0.6-1.3
					c0.4-0.4,0.9-0.5,1.4-0.5l2.5,0c0.9,0,1.6-0.6,1.6-1.4c0,0,0-2.3,0-2.3l0,0c0-0.5,0.2-0.9,0.6-1.3c0.4-0.4,0.9-0.5,1.4-0.5
					c0,0,2.5,0,2.5,0h0c0.5,0,1,0.2,1.4,0.5c0.4,0.4,0.6,0.8,0.6,1.3l0,2.3c0,0.8,0.7,1.4,1.6,1.4h2.4c0.9,0,1.6-0.6,1.6-1.4l0-2.3
					c0-0.5,0.2-0.9,0.6-1.3C29.7,10,30.2,9.9,30.7,9.9z"/>
			</g>
			<g>
				<g>
					<path class="st3" d="M3.5,11.4H2.1c-0.5,0-0.9,0.4-0.9,0.8v1.2c0,0.4,0.4,0.8,0.9,0.8h1.3c0.5,0,0.9-0.4,0.9-0.8v-1.2
						C4.3,11.8,3.9,11.4,3.5,11.4z"/>
				</g>
			</g>
		</g>
	</g>
</g>
</svg>
